<svg width="25" height="25" viewBox="0 0 25 25" fill="none" xmlns="http://www.w3.org/2000/svg">
<circle cx="12.2649" cy="12.2654" r="10.2209" fill="white"/>
<path d="M12.2659 2.04443C10.2444 2.04443 8.26824 2.64388 6.58742 3.76697C4.90659 4.89007 3.59655 6.48636 2.82295 8.35399C2.04935 10.2216 1.84694 12.2767 2.24132 14.2594C2.6357 16.2421 3.60915 18.0633 5.03857 19.4927C6.468 20.9221 8.2892 21.8956 10.2719 22.2899C12.2545 22.6843 14.3096 22.4819 16.1773 21.7083C18.0449 20.9347 19.6412 19.6247 20.7643 17.9438C21.8874 16.263 22.4868 14.2869 22.4868 12.2654C22.4868 10.9231 22.2224 9.59405 21.7088 8.35399C21.1951 7.11393 20.4423 5.98718 19.4932 5.03808C18.5441 4.08898 17.4173 3.33611 16.1773 2.82246C14.9372 2.30881 13.6081 2.04443 12.2659 2.04443ZM17.591 9.92478L11.4584 16.0573C11.3634 16.1531 11.2504 16.2292 11.1258 16.2811C11.0013 16.333 10.8677 16.3597 10.7327 16.3597C10.5978 16.3597 10.4642 16.333 10.3397 16.2811C10.2151 16.2292 10.1021 16.1531 10.007 16.0573L6.94076 12.9911C6.84546 12.8958 6.76987 12.7826 6.71829 12.6581C6.66672 12.5336 6.64017 12.4002 6.64017 12.2654C6.64017 11.9932 6.74829 11.7322 6.94076 11.5397C7.13322 11.3472 7.39426 11.2391 7.66645 11.2391C7.93863 11.2391 8.19967 11.3472 8.39213 11.5397L10.7327 13.8905L16.1396 8.47341C16.3321 8.28094 16.5931 8.17282 16.8653 8.17282C17.1375 8.17282 17.3985 8.28094 17.591 8.47341C17.7834 8.66587 17.8916 8.92691 17.8916 9.19909C17.8916 9.47128 17.7834 9.73232 17.591 9.92478Z" fill="#3535F3"/>
</svg>
