<svg width="16" height="16" viewBox="0 0 16 16" fill="none" xmlns="http://www.w3.org/2000/svg">
<circle cx="7.99967" cy="8" r="6.66667" fill="white"/>
<path d="M7.99968 1.33333C6.68114 1.33333 5.3922 1.72432 4.29588 2.45686C3.19955 3.18941 2.34506 4.2306 1.84048 5.44877C1.3359 6.66695 1.20387 8.00739 1.46111 9.3006C1.71834 10.5938 2.35328 11.7817 3.28563 12.714C4.21798 13.6464 5.40587 14.2813 6.69908 14.5386C7.99228 14.7958 9.33273 14.6638 10.5509 14.1592C11.7691 13.6546 12.8103 12.8001 13.5428 11.7038C14.2754 10.6075 14.6663 9.31854 14.6663 8C14.6663 7.12452 14.4939 6.25761 14.1589 5.44877C13.8238 4.63993 13.3328 3.90501 12.7137 3.28595C12.0947 2.66689 11.3597 2.17583 10.5509 1.8408C9.74206 1.50577 8.87516 1.33333 7.99968 1.33333ZM10.473 9.52666C10.5355 9.58864 10.5851 9.66237 10.6189 9.74361C10.6528 9.82485 10.6702 9.91199 10.6702 10C10.6702 10.088 10.6528 10.1751 10.6189 10.2564C10.5851 10.3376 10.5355 10.4114 10.473 10.4733C10.411 10.5358 10.3373 10.5854 10.2561 10.6193C10.1748 10.6531 10.0877 10.6705 9.99968 10.6705C9.91167 10.6705 9.82453 10.6531 9.74329 10.6193C9.66205 10.5854 9.58832 10.5358 9.52634 10.4733L7.99968 8.93999L6.47301 10.4733C6.41104 10.5358 6.3373 10.5854 6.25606 10.6193C6.17482 10.6531 6.08769 10.6705 5.99968 10.6705C5.91167 10.6705 5.82453 10.6531 5.74329 10.6193C5.66205 10.5854 5.58832 10.5358 5.52634 10.4733C5.46386 10.4114 5.41426 10.3376 5.38042 10.2564C5.34657 10.1751 5.32915 10.088 5.32915 10C5.32915 9.91199 5.34657 9.82485 5.38042 9.74361C5.41426 9.66237 5.46386 9.58864 5.52634 9.52666L7.05968 8L5.52634 6.47333C5.40081 6.34779 5.33028 6.17753 5.33028 6C5.33028 5.82246 5.40081 5.6522 5.52634 5.52666C5.65188 5.40113 5.82214 5.3306 5.99968 5.3306C6.17721 5.3306 6.34748 5.40113 6.47301 5.52666L7.99968 7.06L9.52634 5.52666C9.65188 5.40113 9.82214 5.3306 9.99968 5.3306C10.1772 5.3306 10.3475 5.40113 10.473 5.52666C10.5985 5.6522 10.6691 5.82246 10.6691 6C10.6691 6.17753 10.5985 6.34779 10.473 6.47333L8.93968 8L10.473 9.52666Z" fill="#F50031"/>
</svg>