<svg width="496" height="177" viewBox="0 0 496 177" fill="none" xmlns="http://www.w3.org/2000/svg">
<path d="M113.016 157.788C109.925 162.89 105.76 167.079 100.929 170.137C100.768 170.238 100.616 170.348 100.473 170.433C100.371 170.492 100.287 170.559 100.185 170.619C99.687 170.931 99.1802 171.201 98.6734 171.48C98.572 171.531 98.4876 171.582 98.3862 171.632C98.175 171.742 97.9639 171.843 97.7527 171.953C97.5669 172.038 97.3979 172.139 97.2205 172.223C96.8489 172.409 96.4519 172.578 96.0718 172.739C95.8859 172.823 95.7001 172.925 95.5143 173.009C91.1303 174.876 86.3325 175.94 81.3657 176.033H61.8112L51.7425 176.05H0.714844L26.14 132.016V131.991L47.046 132.008V131.991L77.024 132.016L102.432 88.0249H153.308L113.025 157.779L113.016 157.788Z" fill="#3635F7"/>
<path d="M91.8317 157.788C94.9233 162.89 99.0876 167.079 103.919 170.137C104.08 170.238 104.232 170.348 104.375 170.433C104.477 170.492 104.561 170.559 104.663 170.619C105.161 170.931 105.668 171.201 106.175 171.48C106.276 171.531 106.36 171.582 106.462 171.632C106.673 171.742 106.884 171.843 107.095 171.953C107.281 172.038 107.45 172.139 107.627 172.223C107.999 172.409 108.396 172.578 108.776 172.739C108.962 172.823 109.148 172.925 109.334 173.009C113.718 174.876 118.515 175.94 123.482 176.033H143.037L153.105 176.05H204.15L178.725 132.016V131.991L157.819 132.008V131.991L127.841 132.016L102.433 88.0249H51.5739H51.5654L91.8486 157.779L91.8317 157.788Z" fill="#FFD947"/>
<path d="M91.8314 18.2706C94.923 13.1687 99.0873 8.97904 103.919 5.92127C104.079 5.81991 104.231 5.7101 104.375 5.62563C104.476 5.5665 104.561 5.49892 104.662 5.4398C105.161 5.12726 105.667 4.85696 106.174 4.57821C106.276 4.52753 106.36 4.47685 106.461 4.42617C106.673 4.31636 106.884 4.215 107.095 4.10519C107.281 4.02072 107.45 3.91936 107.627 3.83489C107.999 3.64906 108.396 3.48012 108.776 3.31963C108.962 3.23516 109.148 3.1338 109.333 3.04933C113.717 1.18256 118.515 0.118256 123.482 0.0253407H143.036L153.097 0H204.141L178.716 44.0336V44.059L157.81 44.0421V44.059L127.832 44.0336L102.424 88.025H51.5651H51.5566L91.8314 18.2706Z" fill="#FFA100"/>
<path d="M113.016 18.2706C109.925 13.1687 105.76 8.97904 100.929 5.92127C100.768 5.81991 100.616 5.7101 100.473 5.62563C100.371 5.5665 100.287 5.49892 100.185 5.4398C99.687 5.12726 99.1802 4.85696 98.6734 4.57821C98.572 4.52753 98.4876 4.47685 98.3862 4.42617C98.175 4.31636 97.9639 4.215 97.7527 4.10519C97.5669 4.02072 97.3979 3.91936 97.2205 3.83489C96.8489 3.64906 96.4519 3.48012 96.0718 3.31963C95.8859 3.23516 95.7001 3.1338 95.5143 3.04933C91.1472 1.18256 86.3494 0.118256 81.3826 0.0168938H61.8281L51.7594 0H0.714844L26.14 44.0336V44.059L47.046 44.0421V44.059L77.024 44.0336L102.432 88.025H153.308L113.025 18.2706H113.016Z" fill="#6464FF"/>
<path d="M262.547 67.1358C259.222 65.8162 256.659 63.9128 254.857 61.4258C253.056 58.9388 252.15 55.9696 252.15 52.5182H262.657C262.657 55.3097 263.697 57.3907 265.778 58.7611C267.859 60.1315 270.854 60.8167 274.762 60.8167C277.909 60.8167 280.506 60.233 282.561 59.0657C284.617 57.8983 285.649 56.1726 285.649 53.8886C285.649 52.0106 284.913 50.488 283.441 49.3206C281.969 48.1532 279.609 47.1381 276.361 46.2752L266.235 43.6106C261.972 42.4939 258.85 40.8106 256.871 38.5435C254.891 36.2848 253.901 33.4087 253.901 29.9066C253.901 26.7597 254.747 23.9935 256.448 21.608C258.148 19.2225 260.508 17.3699 263.528 16.0503C266.548 14.7306 270.008 14.0708 273.925 14.0708C277.841 14.0708 281.233 14.6291 284.279 15.7457C287.324 16.8624 289.735 18.5542 291.511 20.8128C293.288 23.0715 294.201 25.8546 294.252 29.1537H283.898C283.695 26.9204 282.714 25.2201 280.971 24.0527C279.22 22.8854 276.767 22.3017 273.62 22.3017C270.828 22.3017 268.561 22.8346 266.81 23.9005C265.059 24.9663 264.179 26.5651 264.179 28.6969C264.179 29.915 264.408 30.9132 264.865 31.6999C265.321 32.4866 266.083 33.1465 267.149 33.6794C268.215 34.2123 269.686 34.703 271.564 35.1598L279.482 37.1392C283.035 38.0528 286.004 39.0933 288.39 40.2607C290.775 41.4281 292.662 43.0015 294.066 44.981C295.462 46.9604 296.164 49.4475 296.164 52.4421C296.164 55.4366 295.352 58.3551 293.728 60.8929C292.104 63.4306 289.659 65.4355 286.385 66.9074C283.111 68.3793 279.059 69.1153 274.246 69.1153C269.78 69.1153 265.88 68.4554 262.555 67.1358H262.547Z" fill="#141414"/>
<path d="M310.207 66.4084C307.288 64.7081 305.055 62.2972 303.507 59.1757C301.959 56.0542 301.181 52.4083 301.181 48.2463C301.181 44.3889 301.967 40.8783 303.541 37.7061C305.114 34.5339 307.347 32.0299 310.241 30.2027C313.134 28.3755 316.509 27.4619 320.366 27.4619C324.224 27.4619 327.76 28.3671 330.526 30.1689C333.292 31.9707 335.39 34.5 336.811 37.7484C338.232 40.9967 338.943 44.778 338.943 49.0923V50.5388H310.85C310.951 54.0409 311.865 56.7817 313.59 58.7612C315.316 60.7407 317.778 61.7304 320.975 61.7304C323.259 61.7304 325.129 61.2736 326.575 60.36C328.022 59.4464 328.969 58.2283 329.435 56.7056H338.19C337.124 60.6645 335.077 63.7014 332.057 65.8078C329.037 67.9141 325.188 68.9631 320.519 68.9631C316.56 68.9631 313.117 68.1172 310.207 66.4169V66.4084ZM329.35 44.2874C329.147 41.2928 328.259 38.9496 326.685 37.2493C325.112 35.549 322.98 34.6946 320.29 34.6946C317.6 34.6946 315.502 35.549 313.853 37.2493C312.203 38.9496 311.196 41.3013 310.85 44.2874H329.35Z" fill="#141414"/>
<path d="M346.479 13.5381H356.225V67.8974H346.479V13.5381Z" fill="#141414"/>
<path d="M365.893 13.5381H375.638V67.8974H365.893V13.5381Z" fill="#141414"/>
<path d="M392.193 66.4084C389.275 64.7081 387.041 62.2972 385.493 59.1757C383.945 56.0542 383.167 52.4083 383.167 48.2463C383.167 44.3889 383.954 40.8783 385.527 37.7061C387.101 34.5339 389.334 32.0299 392.227 30.2027C395.12 28.3755 398.495 27.4619 402.353 27.4619C406.21 27.4619 409.746 28.3671 412.512 30.1689C415.278 31.9707 417.376 34.5 418.797 37.7484C420.219 40.9967 420.929 44.778 420.929 49.0923V50.5388H392.836C392.937 54.0409 393.851 56.7817 395.577 58.7612C397.302 60.7407 399.764 61.7304 402.962 61.7304C405.246 61.7304 407.115 61.2736 408.562 60.36C410.008 59.4464 410.956 58.2283 411.421 56.7056H420.176C419.11 60.6645 417.063 63.7014 414.043 65.8078C411.023 67.9141 407.174 68.9631 402.505 68.9631C398.546 68.9631 395.103 68.1172 392.193 66.4169V66.4084ZM411.336 44.2874C411.133 41.2928 410.245 38.9496 408.672 37.2493C407.098 35.549 404.967 34.6946 402.277 34.6946C399.586 34.6946 397.489 35.549 395.839 37.2493C394.189 38.9496 393.183 41.3013 392.836 44.2874H411.336Z" fill="#141414"/>
<path d="M428.399 28.5361H437.688V35.5404H437.84C438.703 33.0533 440.099 31.0908 442.027 29.6442C443.956 28.1977 446.215 27.4702 448.803 27.4702C449.971 27.4702 451.011 27.5717 451.925 27.7747V36.7585C451.163 36.5047 450.097 36.3778 448.727 36.3778C445.174 36.3778 442.509 37.5198 440.733 39.8038C438.957 42.0878 438.068 45.1585 438.068 49.016V67.8971H428.399V28.5361Z" fill="#141414"/>
<path d="M486.641 93.1152H261.244C256.222 93.1152 252.15 97.1866 252.15 102.209V166.956C252.15 171.979 256.222 176.05 261.244 176.05H486.641C491.664 176.05 495.735 171.979 495.735 166.956V102.209C495.735 97.1866 491.664 93.1152 486.641 93.1152Z" fill="#6464FF"/>
<path d="M293.778 151.95C290.994 150.241 288.863 147.889 287.382 144.903C285.91 141.917 285.166 138.55 285.166 134.794C285.166 131.038 285.902 127.773 287.382 124.77C288.854 121.767 290.994 119.39 293.803 117.639C296.603 115.888 299.902 115.017 303.692 115.017C306.534 115.017 309.106 115.499 311.424 116.463C313.733 117.427 315.628 118.84 317.108 120.693C318.589 122.545 319.485 124.77 319.815 127.359H312.329C312.075 126.157 311.542 125.109 310.747 124.22C309.943 123.332 308.937 122.647 307.718 122.173C306.5 121.699 305.155 121.463 303.7 121.463C301.332 121.463 299.335 122.038 297.72 123.18C296.095 124.33 294.886 125.904 294.091 127.9C293.287 129.905 292.889 132.197 292.889 134.786C292.889 137.374 293.287 139.506 294.091 141.503C294.894 143.507 296.104 145.089 297.72 146.257C299.344 147.424 301.349 148.008 303.759 148.008C306.17 148.008 308.302 147.356 309.85 146.045C311.398 144.734 312.337 142.856 312.667 140.42H320.204C319.951 143.262 319.096 145.749 317.633 147.872C316.169 149.996 314.249 151.645 311.847 152.787C309.444 153.938 306.729 154.504 303.709 154.504C299.885 154.504 296.578 153.65 293.794 151.933L293.778 151.95Z" fill="white"/>
<path d="M329.991 152.576C327.893 151.358 326.294 149.624 325.186 147.391C324.078 145.149 323.52 142.535 323.52 139.549C323.52 136.783 324.086 134.262 325.211 131.986C326.336 129.711 327.944 127.917 330.016 126.606C332.089 125.295 334.517 124.644 337.283 124.644C340.049 124.644 342.587 125.286 344.575 126.581C346.563 127.875 348.06 129.685 349.083 132.02C350.099 134.346 350.615 137.062 350.615 140.158V141.198H330.456C330.532 143.711 331.184 145.673 332.427 147.094C333.662 148.516 335.43 149.226 337.723 149.226C339.364 149.226 340.7 148.896 341.741 148.245C342.781 147.585 343.458 146.714 343.788 145.623H350.073C349.312 148.465 347.84 150.639 345.674 152.153C343.509 153.667 340.751 154.42 337.401 154.42C334.559 154.42 332.097 153.811 329.999 152.593L329.991 152.576ZM343.729 136.706C343.585 134.558 342.942 132.874 341.817 131.656C340.692 130.438 339.161 129.829 337.232 129.829C335.303 129.829 333.798 130.438 332.613 131.656C331.429 132.874 330.71 134.558 330.456 136.706H343.729Z" fill="white"/>
<path d="M354.988 125.405H361.764V129.389H361.874C362.712 127.858 363.871 126.682 365.342 125.862C366.814 125.041 368.523 124.635 370.452 124.635C373.726 124.635 376.196 125.557 377.854 127.393C379.512 129.229 380.341 131.936 380.341 135.505V153.642H373.345V137.578C373.345 135.032 372.897 133.162 372.008 131.978C371.12 130.794 369.724 130.201 367.829 130.201C365.935 130.201 364.446 130.802 363.456 132.003C362.475 133.205 361.984 135.066 361.984 137.578V153.642H354.988V125.405Z" fill="white"/>
<path d="M390.983 151.84C389.418 150.351 388.631 147.889 388.631 144.463V130.59H383.496V125.405H388.631V116.886H395.677V125.405H401.743V130.59H395.677V143.592C395.677 144.827 395.804 145.808 396.058 146.519C396.312 147.23 396.693 147.729 397.209 148.025C397.716 148.321 398.393 148.465 399.23 148.465C400.144 148.465 401.049 148.372 401.963 148.194V153.599C400.728 153.929 399.323 154.09 397.758 154.09C394.806 154.09 392.548 153.346 390.983 151.848V151.84Z" fill="white"/>
<path d="M406.117 125.405H412.783V130.43H412.893C413.511 128.645 414.517 127.232 415.896 126.2C417.283 125.16 418.899 124.644 420.76 124.644C421.598 124.644 422.342 124.72 423.002 124.863V131.309C422.452 131.132 421.691 131.039 420.709 131.039C418.163 131.039 416.251 131.859 414.974 133.5C413.697 135.142 413.062 137.341 413.062 140.107V153.65H406.126V125.413L406.117 125.405Z" fill="white"/>
<path d="M429.109 153.371C427.654 152.677 426.521 151.67 425.726 150.342C424.922 149.014 424.524 147.398 424.524 145.512C424.524 139.43 429.219 136.393 438.618 136.393H442.932V135.082C442.932 133.153 442.543 131.706 441.756 130.742C440.969 129.778 439.633 129.295 437.738 129.295C434.498 129.295 432.713 130.497 432.383 132.899H425.556C425.776 130.243 426.952 128.196 429.084 126.758C431.216 125.32 434.176 124.601 437.958 124.601C442.001 124.601 444.996 125.48 446.942 127.248C448.887 129.016 449.86 131.774 449.86 135.522V153.658H443.634L443.194 149.885H443.084C442.39 151.197 441.299 152.279 439.802 153.134C438.305 153.988 436.452 154.42 434.227 154.42C432.256 154.42 430.547 154.073 429.092 153.379L429.109 153.371ZM432.848 148.261C433.703 148.972 434.862 149.327 436.317 149.327C437.594 149.327 438.728 149.065 439.734 148.532C440.732 148.007 441.519 147.229 442.086 146.214C442.653 145.19 442.932 143.972 442.932 142.551V140.479H439.599C436.976 140.479 434.98 140.825 433.618 141.519C432.256 142.213 431.571 143.397 431.571 145.072C431.571 146.493 431.994 147.559 432.857 148.27L432.848 148.261Z" fill="white"/>
<path d="M455.714 114.635H462.71V153.641H455.714V114.635Z" fill="white"/>
</svg>
