<svg width="56" height="57" viewBox="0 0 56 57" fill="none" xmlns="http://www.w3.org/2000/svg">
<rect y="0.602051" width="56" height="56" rx="28" fill="#E8E8FC"/>
<path d="M29.5558 19.2691V13.0469H21.0002C19.9688 13.0469 18.9797 13.4566 18.2504 14.1859C17.521 14.9152 17.1113 15.9044 17.1113 16.9358V40.2691C17.1113 41.3005 17.521 42.2897 18.2504 43.019C18.9797 43.7483 19.9688 44.158 21.0002 44.158H36.5558C37.5872 44.158 38.5763 43.7483 39.3056 43.019C40.0349 42.2897 40.4447 41.3005 40.4447 40.2691V23.9358H34.2224C32.9848 23.9358 31.7978 23.4441 30.9226 22.5689C30.0474 21.6938 29.5558 20.5068 29.5558 19.2691ZM34.2224 20.8247H40.4447C40.4412 20.0009 40.1111 19.2121 39.5269 18.6313L34.8602 13.9647C34.2794 13.3804 33.4907 13.0503 32.6669 13.0469V19.2691C32.6669 19.6817 32.8308 20.0773 33.1225 20.369C33.4142 20.6608 33.8099 20.8247 34.2224 20.8247Z" fill="#3535F3"/>
</svg>
