<svg width="18" height="19" viewBox="0 0 18 19" fill="none" xmlns="http://www.w3.org/2000/svg">
<g id="ic_home">
<path id="Vector" d="M16.1025 7.48311L10.3875 2.52561C10.0041 2.18812 9.51077 2.00195 8.99997 2.00195C8.48918 2.00195 7.9959 2.18812 7.61247 2.52561L1.89747 7.48311C1.72308 7.63254 1.59753 7.83085 1.53707 8.0524C1.4766 8.27395 1.48401 8.50855 1.55833 8.72585C1.63264 8.94314 1.77045 9.13314 1.95393 9.27127C2.1374 9.40939 2.3581 9.48928 2.58747 9.50061H2.99997V14.7506C2.99997 15.3474 3.23703 15.9196 3.65898 16.3416C4.08094 16.7636 4.65324 17.0006 5.24997 17.0006H7.49997V12.5006H10.5V17.0006H12.75C13.3467 17.0006 13.919 16.7636 14.341 16.3416C14.7629 15.9196 15 15.3474 15 14.7506V9.50061H15.4125C15.6418 9.48928 15.8625 9.40939 16.046 9.27127C16.2295 9.13314 16.3673 8.94314 16.4416 8.72585C16.5159 8.50855 16.5233 8.27395 16.4629 8.0524C16.4024 7.83085 16.2769 7.63254 16.1025 7.48311Z" fill="#3535F3"/>
</g>
</svg>
