<svg width="24" height="25" viewBox="0 0 24 25" fill="none" xmlns="http://www.w3.org/2000/svg">
<circle cx="12" cy="12.6021" r="10" fill="white"/>
<path d="M12 2.60205C10.0222 2.60205 8.08879 3.18854 6.4443 4.28735C4.79981 5.38617 3.51809 6.94796 2.76121 8.77522C2.00433 10.6025 1.8063 12.6131 2.19215 14.553C2.578 16.4928 3.53041 18.2746 4.92894 19.6731C6.32746 21.0716 8.10929 22.0241 10.0491 22.4099C11.9889 22.7958 13.9996 22.5977 15.8268 21.8408C17.6541 21.084 19.2159 19.8022 20.3147 18.1578C21.4135 16.5133 22 14.5799 22 12.6021C22 11.2888 21.7413 9.98847 21.2388 8.77522C20.7363 7.56196 19.9997 6.45957 19.0711 5.53098C18.1425 4.6024 17.0401 3.8658 15.8268 3.36326C14.6136 2.86071 13.3132 2.60205 12 2.60205ZM17.21 10.3121L11.21 16.3121C11.117 16.4058 11.0064 16.4802 10.8846 16.5309C10.7627 16.5817 10.632 16.6078 10.5 16.6078C10.368 16.6078 10.2373 16.5817 10.1154 16.5309C9.99357 16.4802 9.88297 16.4058 9.79 16.3121L6.79 13.3121C6.69677 13.2188 6.62281 13.1081 6.57234 12.9863C6.52188 12.8645 6.49591 12.7339 6.49591 12.6021C6.49591 12.3357 6.6017 12.0804 6.79 11.8921C6.97831 11.7037 7.2337 11.598 7.5 11.598C7.76631 11.598 8.0217 11.7037 8.21 11.8921L10.5 14.1921L15.79 8.89205C15.9783 8.70375 16.2337 8.59796 16.5 8.59796C16.7663 8.59796 17.0217 8.70375 17.21 8.89205C17.3983 9.08035 17.5041 9.33575 17.5041 9.60205C17.5041 9.86835 17.3983 10.1237 17.21 10.3121Z" fill="#25AB21"/>
</svg>
