<svg width="18" height="18" viewBox="0 0 18 18" fill="none" xmlns="http://www.w3.org/2000/svg">
<g id="ic_success_colored">
<circle id="bg" cx="9" cy="9" r="7.5" fill="white"/>
<path id="Vector" d="M9 1.5C7.51664 1.5 6.0666 1.93987 4.83323 2.76398C3.59986 3.58809 2.63856 4.75943 2.07091 6.12987C1.50325 7.50032 1.35472 9.00832 1.64411 10.4632C1.9335 11.918 2.64781 13.2544 3.6967 14.3033C4.7456 15.3522 6.08197 16.0665 7.53683 16.3559C8.99168 16.6453 10.4997 16.4968 11.8701 15.9291C13.2406 15.3614 14.4119 14.4001 15.236 13.1668C16.0601 11.9334 16.5 10.4834 16.5 9C16.5 8.01509 16.306 7.03982 15.9291 6.12987C15.5522 5.21993 14.9997 4.39314 14.3033 3.6967C13.6069 3.00026 12.7801 2.44781 11.8701 2.0709C10.9602 1.69399 9.98492 1.5 9 1.5ZM12.9075 7.2825L8.4075 11.7825C8.33778 11.8528 8.25483 11.9086 8.16344 11.9467C8.07204 11.9847 7.97401 12.0043 7.875 12.0043C7.77599 12.0043 7.67796 11.9847 7.58657 11.9467C7.49518 11.9086 7.41222 11.8528 7.3425 11.7825L5.0925 9.5325C5.02257 9.46257 4.9671 9.37955 4.92926 9.28819C4.89141 9.19682 4.87193 9.09889 4.87193 9C4.87193 8.80027 4.95128 8.60873 5.0925 8.4675C5.23373 8.32627 5.42528 8.24693 5.625 8.24693C5.82473 8.24693 6.01627 8.32627 6.1575 8.4675L7.875 10.1925L11.8425 6.2175C11.9837 6.07627 12.1753 5.99693 12.375 5.99693C12.5747 5.99693 12.7663 6.07627 12.9075 6.2175C13.0487 6.35873 13.1281 6.55027 13.1281 6.75C13.1281 6.94973 13.0487 7.14127 12.9075 7.2825Z" fill="#E0E0E0"/>
</g>
</svg>
