<svg width="32" height="33" viewBox="0 0 32 33" fill="none" xmlns="http://www.w3.org/2000/svg">
<g id="Swap me">
<path id="Vector" d="M10.2806 12.1131L14.6672 7.71309V23.1664C14.6672 23.52 14.8077 23.8592 15.0578 24.1092C15.3078 24.3593 15.647 24.4998 16.0006 24.4998C16.3542 24.4998 16.6933 24.3593 16.9434 24.1092C17.1934 23.8592 17.3339 23.52 17.3339 23.1664V7.71309L21.7206 12.1131C21.8445 12.2381 21.992 12.3373 22.1545 12.4049C22.317 12.4726 22.4912 12.5075 22.6672 12.5075C22.8433 12.5075 23.0175 12.4726 23.18 12.4049C23.3425 12.3373 23.49 12.2381 23.6139 12.1131C23.7389 11.9891 23.8381 11.8417 23.9058 11.6792C23.9735 11.5167 24.0083 11.3424 24.0083 11.1664C24.0083 10.9904 23.9735 10.8161 23.9058 10.6537C23.8381 10.4912 23.7389 10.3437 23.6139 10.2198L16.9472 3.55309C16.8233 3.42812 16.6758 3.32893 16.5133 3.26123C16.3509 3.19354 16.1766 3.15869 16.0006 3.15869C15.8246 3.15869 15.6503 3.19354 15.4878 3.26123C15.3253 3.32893 15.1779 3.42812 15.0539 3.55309L8.38724 10.2198C8.13617 10.4708 7.99512 10.8114 7.99512 11.1664C7.99512 11.5215 8.13617 11.862 8.38724 12.1131C8.63831 12.3642 8.97884 12.5052 9.33391 12.5052C9.68898 12.5052 10.0295 12.3642 10.2806 12.1131ZM22.6672 27.1664H9.33391C8.98028 27.1664 8.64115 27.3069 8.3911 27.5569C8.14105 27.807 8.00057 28.1461 8.00057 28.4998C8.00057 28.8534 8.14105 29.1925 8.3911 29.4426C8.64115 29.6926 8.98028 29.8331 9.33391 29.8331H22.6672C23.0209 29.8331 23.36 29.6926 23.6101 29.4426C23.8601 29.1925 24.0006 28.8534 24.0006 28.4998C24.0006 28.1461 23.8601 27.807 23.6101 27.5569C23.36 27.3069 23.0209 27.1664 22.6672 27.1664Z" fill="#3535F3"/>
</g>
</svg>
